<?xml version="1.0" encoding="iso-8859-1"?>
<!-- Generator: Dynamo SVG Export Addon. visit www.dynamobim.org  -->
<!DOCTYPE svg PUBLIC "-//W3C//DTD SVG 1.1//EN" "http://www.w3.org/Graphics/SVG/1.1/DTD/svg11.dtd">
<svg version="1.1" xmlns="http://www.w3.org/2000/svg" xmlns:xlink="http://www.w3.org/1999/xlink" width="66266.8775533438px" height="53870.2021377087px" viewBox="0 0 66266.8775533438 53870.2021377087" xml:space="preserve"> 
<g>
<polygon id="177056" points="5711.49999999999, 24370.1021362538 8280.74999999999, 24370.1021362538 8280.75000000001, 8408.74999999991 5711.50000000001, 8408.74999999989 " style="fill: none; stroke-width: 1; stroke: #000000;"/>
<polygon id="177304" points="17091.3005117178, 42924.4023254394 17041.8005117178, 42924.4023254394 17041.8005117178, 37385.4019378662 16244.8999977476, 37385.4019378662 16244.8999977476, 37160.4019378662 17041.8005117178, 37160.4019378662 17041.8005117178, 31391.001550293 16244.8999977476, 31391.001550293 16244.8999977476, 31166.001550293 17041.8005117178, 31166.001550293 17041.8005117178, 20791.001550293 16244.8999977477, 20791.001550293 16244.8999977477, 20566.001550293 17041.8005117178, 20566.001550293 17041.8005117178, 13028.001550293 16244.8999977477, 13028.001550293 16244.8999977477, 12803.001550293 17041.8005117178, 12803.001550293 17041.8005117178, 10971.201550293 17091.3005117178, 10971.201550293 17091.3005117178, 8333.74999999991 8419.25, 8333.74999999988 8419.25, 8408.74999999991 8280.75000000001, 8408.74999999991 8280.74999999999, 24521.6021362538 8349.99999999999, 24521.6021362538 8349.99999999998, 26328.5521362538 7468.92864091765, 26328.5521362538 7468.92864091765, 28190.0521362538 8349.99999999998, 28190.0521362538 8349.99999999997, 34328.5521362538 8349.99999999996, 38328.5521362538 8349.99999999995, 45520.2021377087 8411.49999999995, 45520.2021377087 8411.49999999995, 46504.4521377087 11051.4999999999, 46504.4521377087 11051.4999999999, 45520.2021377087 13651.5, 45520.2021377087 17091.3005117178, 45520.2021377087 " style="fill: none; stroke-width: 1; stroke: #000000;"/>
<polygon id="177305" points="0, 0 0, 8105.74999999988 5711.50000000001, 8105.7499999999 8280.75000000001, 8105.74999999991 8419.25000000001, 8105.74999999991 8419.25, 8333.74999999988 17091.3005117178, 8333.74999999991 17950.6499977477, 8333.74999999991 17950.6499977477, 5980.74999999994 17950.6499977477, 100 16444.8999977477, 100 16444.8999977477, 0 " style="fill: none; stroke-width: 1; stroke: #000000;"/>
<polygon id="177306" points="21910.6499977477, 100 18089.1499977477, 100 18089.1499977477, 5911.49999999994 21910.6499977477, 5911.49999999995 " style="fill: none; stroke-width: 1; stroke: #000000;"/>
<polygon id="177307" points="18089.1499977477, 8264.49999999992 21910.6499977477, 8264.49999999993 21910.6499977477, 6049.99999999995 18089.1499977477, 6049.99999999994 " style="fill: none; stroke-width: 1; stroke: #000000;"/>
<polygon id="177308" points="22049.1499977477, 8264.49999999993 24650.6499977477, 8264.49999999994 24650.6499977477, 6049.99999999996 22049.1499977477, 6049.99999999995 " style="fill: none; stroke-width: 1; stroke: #000000;"/>
<polygon id="177309" points="27930.6499977477, 100 22049.1499977477, 100 22049.1499977477, 5911.49999999995 24789.1499977477, 5911.49999999996 24789.1499977477, 8264.49999999994 27930.6499977477, 8264.49999999994 27930.6499977477, 2700 " style="fill: none; stroke-width: 1; stroke: #000000;"/>
<polygon id="177310" points="34166.1993489981, 100 28069.1499977477, 100 28069.1499977477, 2630.74999999998 31009.8999977477, 2630.74999999999 34166.1993489981, 2630.74999999999 " style="fill: none; stroke-width: 1; stroke: #000000;"/>
<polygon id="177311" points="28069.1499977477, 8264.49999999994 30940.6499977477, 8264.49999999996 30940.6499977477, 5980.74999999998 30940.6499977477, 2769.24999999999 28069.1499977477, 2769.24999999998 " style="fill: none; stroke-width: 1; stroke: #000000;"/>
<polygon id="177312" points="34166.1993489981, 5911.49999999999 34166.1993489981, 2769.24999999999 31079.1499977477, 2769.24999999999 31079.1499977477, 5911.49999999998 33666.1993489981, 5911.49999999999 " style="fill: none; stroke-width: 1; stroke: #000000;"/>
<polygon id="177313" points="31079.1499977477, 8264.49999999996 33596.9493489981, 8264.49999999996 33596.9493489981, 6049.99999999999 31079.1499977477, 6049.99999999998 " style="fill: none; stroke-width: 1; stroke: #000000;"/>
<polygon id="177314" points="37006.1993489981, 100 34366.1993489981, 100 34366.1993489981, 2700 34366.1993489981, 5980.74999999999 34366.1993489981, 7265.74999999999 37006.1993489981, 7265.75 " style="fill: none; stroke-width: 1; stroke: #000000;"/>
<polygon id="177315" points="37157.6993489981, 10971.201550293 37157.6993489981, 8249.99999999999 37006.1993489981, 8249.99999999999 37006.1993489981, 7265.75 34366.1993489981, 7265.74999999999 34366.1993489981, 8402.99999999997 33666.1993489981, 8402.99999999997 31009.8999977477, 8402.99999999996 27999.8999977477, 8402.99999999995 24719.8999977477, 8402.99999999994 21979.8999977477, 8402.99999999993 18019.8999977477, 8402.99999999992 18019.8999977477, 8333.74999999992 17091.3005117178, 8333.74999999991 17091.3005117178, 10971.201550293 " style="fill: none; stroke-width: 1; stroke: #000000;"/>
<polygon id="177316" points="2630.75000000001, 24673.1021362538 100, 24673.1021362538 100, 28190.0521362538 2630.75, 28190.0521362538 " style="fill: none; stroke-width: 1; stroke: #000000;"/>
<polygon id="177317" points="8211.49999999999, 24673.1021362538 5711.49999999999, 24673.1021362538 2769.25000000001, 24673.1021362538 2769.25, 28190.0521362538 7330.42864091765, 28190.0521362538 7330.42864091765, 26190.0521362538 8211.49999999998, 26190.0521362538 " style="fill: none; stroke-width: 1; stroke: #000000;"/>
<polygon id="177318" points="8211.49999999998, 28328.5521362538 7399.67864091765, 28328.5521362538 2700, 28328.5521362538 0, 28328.5521362538 0, 34259.3021362538 8211.49999999997, 34259.3021362538 " style="fill: none; stroke-width: 1; stroke: #000000;"/>
<polygon id="177319" points="23906.3896444082, 31278.501550293 17644.8999977477, 31278.501550293 17644.8999977476, 31391.001550293 17041.8005117178, 31391.001550293 17041.8005117178, 37160.4019378662 17644.8999977476, 37160.4019378662 17644.8999977476, 37272.9019378662 23906.3896444082, 37272.9019378662 " style="fill: none; stroke-width: 1; stroke: #000000;"/>
<polygon id="177320" points="8211.49999999997, 34397.8021362538 0, 34397.8021362538 0, 38259.3021362538 8211.49999999997, 38259.3021362538 " style="fill: none; stroke-width: 1; stroke: #000000;"/>
<polygon id="177321" points="0, 53870.2021377087 8211.49999999994, 53870.2021377087 8211.49999999995, 46504.4521377087 8211.49999999995, 45520.2021377087 8211.49999999996, 38397.8021362538 0, 38397.8021362538 " style="fill: none; stroke-width: 1; stroke: #000000;"/>
<polygon id="177322" points="8411.49999999995, 46504.4521377087 8411.49999999994, 53770.2021377087 11051.4999999999, 53770.2021377087 11051.4999999999, 46504.4521377087 " style="fill: none; stroke-width: 1; stroke: #000000;"/>
<polygon id="177324" points="16953.5309117178, 45658.7021377087 13720.7499999999, 45658.7021377087 13720.7499999999, 47835.2021377087 16972.5505117178, 47835.2021377087 16972.5505117178, 45658.7021377087 " style="fill: none; stroke-width: 1; stroke: #000000;"/>
<polygon id="177325" points="13582.25, 45658.7021377087 11251.4999999999, 45658.7021377087 11251.4999999999, 46504.4521377087 11251.4999999999, 53770.2021377087 16972.5505117178, 53770.2021377087 16972.5505117178, 47973.7021377087 13582.2499999999, 47973.7021377087 " style="fill: none; stroke-width: 1; stroke: #000000;"/>
<polygon id="177326" points="17111.0505117178, 53770.2021377087 19472.5505117178, 53770.2021377087 19472.5505117178, 47973.7021377087 18741.8005117178, 47973.7021377087 17111.0505117178, 47973.7021377087 " style="fill: none; stroke-width: 1; stroke: #000000;"/>
<polygon id="177328" points="20111.0505117178, 53770.2021377087 22374.8499977475, 53770.2021377087 22374.8499977475, 53253.9989974239 22374.8499977475, 53194.2052750832 22374.8499977475, 47973.7021377087 20744.0999977475, 47973.7021377087 20111.0505117178, 47973.7021377087 " style="fill: none; stroke-width: 1; stroke: #000000;"/>
<polygon id="177329" points="66166.8775533438, 46504.4521377089 66166.8775533438, 45520.2021377089 66266.8775533438, 45520.2021377089 66266.8775533438, 42924.4023254394 17091.3005117178, 42924.4023254394 17091.3005117178, 45436.4425377087 17091.3005117178, 45589.4521377087 17111.0505117178, 45589.4521377087 17111.0505117178, 47835.2021377087 18672.5505117178, 47835.2021377087 18672.5505117178, 45520.2021377087 20813.3499977475, 45520.2021377087 20813.3499977475, 47835.2021377087 22374.8499977475, 47835.2021377087 22374.8499977475, 45938.7989974244 22374.8499977475, 45879.0052750837 22374.8499977475, 45520.2021377087 33513.3499977475, 45520.2021377088 39513.3499977475, 45520.2021377088 51513.3499977475, 45520.2021377088 57513.3499977475, 45520.2021377088 63526.8775533438, 45520.2021377089 63526.8775533438, 46504.4521377089 " style="fill: none; stroke-width: 1; stroke: #000000;"/>
<polygon id="177330" points="22513.3499977475, 45879.0052750837 22597.1095977475, 45879.0052750837 22759.1239785782, 45759.6564327983 22894.0999977475, 45908.902136254 22759.1239785782, 46058.1478397098 22597.1095977475, 45938.7989974244 22513.3499977475, 45938.7989974244 22513.3499977475, 47904.4521377087 22513.3499977475, 53194.2052750832 22597.1095977475, 53194.2052750832 22759.1239785782, 53074.8564327978 22894.0999977475, 53224.1021362536 22759.1239785782, 53373.3478397093 22597.1095977475, 53253.9989974239 22513.3499977475, 53253.9989974239 22513.3499977475, 53870.2021377087 33444.0999977475, 53870.2021377087 33444.0999977475, 45658.7021377088 22513.3499977475, 45658.7021377087 " style="fill: none; stroke-width: 1; stroke: #000000;"/>
<polygon id="177331" points="39444.0999977475, 45658.7021377088 33582.5999977475, 45658.7021377088 33582.5999977475, 53870.2021377087 39444.0999977475, 53870.2021377087 " style="fill: none; stroke-width: 1; stroke: #000000;"/>
<polygon id="177332" points="51444.0999977475, 45658.7021377088 39582.5999977475, 45658.7021377088 39582.5999977475, 53870.2021377087 51444.0999977475, 53870.2021377087 " style="fill: none; stroke-width: 1; stroke: #000000;"/>
<polygon id="177333" points="57444.0999977475, 45658.7021377088 51582.5999977475, 45658.7021377088 51582.5999977475, 53870.2021377087 57444.0999977475, 53870.2021377087 " style="fill: none; stroke-width: 1; stroke: #000000;"/>
<polygon id="177334" points="63326.8775533438, 45658.7021377089 57582.5999977475, 45658.7021377088 57582.5999977475, 53870.2021377087 63326.8775533438, 53870.2021377087 63326.8775533438, 46504.4521377088 " style="fill: none; stroke-width: 1; stroke: #000000;"/>
<polygon id="177335" points="66166.8775533438, 53770.2021377087 66166.8775533438, 46504.4521377089 63526.8775533438, 46504.4521377089 63526.8775533438, 53770.2021377087 " style="fill: none; stroke-width: 1; stroke: #000000;"/>
</g>
</svg>
