<?xml version="1.0" encoding="iso-8859-1"?>
<!-- Generator: Dynamo SVG Export Addon. visit www.dynamobim.org  -->
<!DOCTYPE svg PUBLIC "-//W3C//DTD SVG 1.1//EN" "http://www.w3.org/Graphics/SVG/1.1/DTD/svg11.dtd">
<svg version="1.1" xmlns="http://www.w3.org/2000/svg" xmlns:xlink="http://www.w3.org/1999/xlink" width="66166.8775533438px" height="53870.2021377087px" viewBox="0 0 66166.8775533438 53870.2021377087" xml:space="preserve"> 
<g>
<polygon id="215241" points="66166.8775533438, 53870.2021377087 66166.8775533438, 46504.4521377089 63526.8775533438, 46504.4521377089 63526.8775533438, 53870.2021377087 " style="fill: none; stroke-width: 1; stroke: #000000;"/>
<polygon id="215247" points="53582.5999977475, 53870.2021377087 63326.8775533438, 53870.2021377087 63326.8775533438, 46504.4521377088 63326.8775533438, 45658.7021377089 53582.5999977475, 45658.7021377088 " style="fill: none; stroke-width: 1; stroke: #000000;"/>
<polygon id="215249" points="45582.5999977475, 53870.2021377087 53444.0999977475, 53870.2021377087 53444.0999977476, 45658.7021377088 45582.5999977475, 45658.7021377088 " style="fill: none; stroke-width: 1; stroke: #000000;"/>
<polygon id="216393" points="39582.5999977475, 53870.2021377087 45444.0999977475, 53870.2021377087 45444.0999977475, 45658.7021377088 39582.5999977475, 45658.7021377088 " style="fill: none; stroke-width: 1; stroke: #000000;"/>
<polygon id="216413" points="31582.5999977475, 53870.2021377087 39444.0999977475, 53870.2021377087 39444.0999977475, 45658.7021377088 31582.5999977475, 45658.7021377088 " style="fill: none; stroke-width: 1; stroke: #000000;"/>
<polygon id="216415" points="22513.3499977475, 45879.0052750837 22597.1095977475, 45879.0052750837 22894.0999977475, 45908.902136254 22597.1095977475, 45938.7989974244 22513.3499977475, 45938.7989974244 22513.3499977475, 47904.4521377087 22513.3499977475, 53194.2052750832 22597.1095977475, 53194.2052750832 22894.0999977475, 53224.1021362536 22597.1095977475, 53253.9989974239 22513.3499977475, 53253.9989974239 22513.3499977475, 53870.2021377087 31444.0999977475, 53870.2021377087 31444.0999977475, 45658.7021377087 22513.3499977475, 45658.7021377087 " style="fill: none; stroke-width: 1; stroke: #000000;"/>
<polygon id="216417" points="20111.0505117178, 53770.2021377087 22374.8499977475, 53770.2021377087 22374.8499977475, 53253.9989974239 22374.8499977475, 53194.2052750832 22374.8499977475, 47973.7021377087 20744.0999977475, 47973.7021377087 20111.0505117178, 47973.7021377087 " style="fill: none; stroke-width: 1; stroke: #000000;"/>
<polygon id="216419" points="17111.0505117178, 53770.2021377087 19472.5505117178, 53770.2021377087 19472.5505117178, 47973.7021377087 18741.8005117178, 47973.7021377087 17111.0505117178, 47973.7021377087 " style="fill: none; stroke-width: 1; stroke: #000000;"/>
<polygon id="216421" points="11251.4999999999, 53770.2021377087 16972.5505117178, 53770.2021377087 16972.5505117178, 47973.7021377087 13582.2499999999, 47973.7021377087 13582.25, 45658.7021377087 11251.5, 45658.7021377087 11251.4999999999, 46504.4521377087 " style="fill: none; stroke-width: 1; stroke: #000000;"/>
<polygon id="216423" points="16966.8005117178, 45658.7021377087 13720.75, 45658.7021377087 13720.7499999999, 47835.2021377087 16972.5505117178, 47835.2021377087 16972.5505117178, 45658.7021377087 " style="fill: none; stroke-width: 1; stroke: #000000;"/>
<polygon id="216433" points="8411.49999999995, 46504.4521377087 8411.49999999994, 53770.2021377087 11051.4999999999, 53770.2021377087 11051.4999999999, 46504.4521377087 " style="fill: none; stroke-width: 1; stroke: #000000;"/>
<polygon id="216438" points="0, 53870.2021377087 8211.49999999994, 53870.2021377087 8211.49999999995, 46504.4521377087 8211.49999999995, 45520.2021377087 8211.49999999996, 44397.8021362538 0, 44397.8021362538 " style="fill: none; stroke-width: 1; stroke: #000000;"/>
<polygon id="216440" points="0, 34397.8021362538 0, 44259.3021362538 8211.49999999996, 44259.3021362538 8211.49999999997, 34397.8021362538 " style="fill: none; stroke-width: 1; stroke: #000000;"/>
<polygon id="216442" points="0, 28328.5521362538 0, 34259.3021362538 8211.49999999997, 34259.3021362538 8211.49999999998, 28328.5521362538 2580.74999999998, 28328.5521362538 " style="fill: none; stroke-width: 1; stroke: #000000;"/>
<polygon id="216444" points="100, 25328.5521362538 100, 28190.0521362538 2511.49999999998, 28190.0521362538 2511.49999999999, 25328.5521362538 " style="fill: none; stroke-width: 1; stroke: #000000;"/>
<polygon id="216446" points="8211.49999999998, 28190.0521362538 8211.49999999999, 25328.5521362538 2649.99999999999, 25328.5521362538 2649.99999999998, 28190.0521362538 " style="fill: none; stroke-width: 1; stroke: #000000;"/>
<polygon id="216455" points="16966.8005117178, 42999.4023254394 17041.8005117178, 42924.4023254394 17041.8005117178, 37385.4019378662 16244.8999977476, 37385.4019378662 16244.8999977476, 37160.4019378662 17041.8005117178, 37160.4019378662 17041.8005117178, 31391.001550293 16244.8999977476, 31391.001550293 16244.8999977476, 31166.001550293 17041.8005117178, 31166.001550293 17041.8005117178, 20791.001550293 16244.8999977477, 20791.001550293 16244.8999977477, 20566.001550293 17041.8005117178, 20566.001550293 17041.8005117178, 13028.001550293 16244.8999977477, 13028.001550293 16244.8999977477, 12803.001550293 17041.8005117178, 12803.001550293 17041.8005117178, 10971.201550293 16966.8005117178, 10896.201550293 16966.8005117178, 10833.431950293 16966.8005117178, 8402.99999999992 16841.8005117178, 8402.99999999992 11444.8999977477, 8402.9999999999 8350.00000000001, 8402.99999999988 8350.00000000001, 13028.0015502929 8350, 19659.3021362538 8349.99999999999, 25259.3021362538 8349.99999999998, 28259.3021362538 8349.99999999997, 34328.5521362538 8349.99999999996, 44328.5521362538 8349.99999999995, 45520.2021377087 8411.49999999996, 45520.2021377087 8411.49999999995, 46504.4521377087 11051.4999999999, 46504.4521377087 11051.5, 45520.2021377087 13651.5, 45520.2021377087 16966.8005117178, 45520.2021377087 16966.8005117178, 43062.1719254395 " style="fill: none; stroke-width: 1; stroke: #000000;"/>
<polygon id="216457" points="100, 19728.5521362538 100, 25190.0521362538 2580.74999999999, 25190.0521362538 8211.49999999999, 25190.0521362538 8211.49999999999, 19728.5521362538 " style="fill: none; stroke-width: 1; stroke: #000000;"/>
<polygon id="216459" points="100, 13097.2515502929 100, 19590.0521362538 8211.49999999999, 19590.0521362538 8211.50000000001, 13097.2515502929 " style="fill: none; stroke-width: 1; stroke: #000000;"/>
<polygon id="216461" points="0, 0 0, 8257.24999999988 100, 8257.24999999988 100, 12958.7515502929 8211.50000000001, 12958.7515502929 8211.50000000001, 8264.49999999988 11375.6499977477, 8264.4999999999 11375.6499977477, 0 " style="fill: none; stroke-width: 1; stroke: #000000;"/>
<polygon id="216463" points="19440.6499977477, 100 16444.8999977477, 100 16444.8999977477, 0 11514.1499977477, 0 11514.1499977477, 8264.4999999999 16772.5505117178, 8264.49999999991 16772.5505117178, 5911.49999999994 19440.6499977477, 5911.49999999994 " style="fill: none; stroke-width: 1; stroke: #000000;"/>
<polygon id="216465" points="16966.8005117178, 8264.49999999991 19440.6499977477, 8264.49999999992 19440.6499977477, 6049.99999999994 16911.0505117178, 6049.99999999994 16911.0505117178, 8264.49999999991 " style="fill: none; stroke-width: 1; stroke: #000000;"/>
<polygon id="216467" points="25740.6499977477, 100 19579.1499977477, 100 19579.1499977477, 5980.74999999995 19579.1499977477, 8264.49999999992 25740.6499977477, 8264.49999999994 " style="fill: none; stroke-width: 1; stroke: #000000;"/>
<polygon id="216478" points="34166.1993489981, 100 25879.1499977477, 100 25879.1499977477, 8264.49999999994 30940.6499977477, 8264.49999999996 30940.6499977477, 5911.49999999998 33666.1993489981, 5911.49999999999 34166.1993489981, 5911.49999999999 " style="fill: none; stroke-width: 1; stroke: #000000;"/>
<polygon id="216480" points="31079.1499977477, 8264.49999999996 33596.9493489981, 8264.49999999996 33596.9493489981, 6049.99999999999 31079.1499977477, 6049.99999999998 " style="fill: none; stroke-width: 1; stroke: #000000;"/>
<polygon id="216482" points="34366.1993489981, 0 34366.1993489981, 5980.74999999999 34366.1993489981, 7265.74999999999 37006.1993489981, 7265.75 37006.1993489981, 0 " style="fill: none; stroke-width: 1; stroke: #000000;"/>
<polygon id="216484" points="37157.6993489981, 10971.201550293 37157.6993489981, 8249.99999999999 37006.1993489981, 8249.99999999999 37006.1993489981, 7265.75 34366.1993489981, 7265.74999999999 34366.1993489981, 8402.99999999997 33666.1993489981, 8402.99999999997 31009.8999977477, 8402.99999999996 25809.8999977477, 8402.99999999994 19509.8999977477, 8402.99999999992 16966.8005117178, 8402.99999999992 16966.8005117178, 10971.201550293 " style="fill: none; stroke-width: 1; stroke: #000000;"/>
</g>
</svg>
