<?xml version="1.0" encoding="iso-8859-1"?>
<!-- Generator: Dynamo SVG Export Addon. visit www.dynamobim.org  -->
<!DOCTYPE svg PUBLIC "-//W3C//DTD SVG 1.1//EN" "http://www.w3.org/Graphics/SVG/1.1/DTD/svg11.dtd">
<svg version="1.1" xmlns="http://www.w3.org/2000/svg" xmlns:xlink="http://www.w3.org/1999/xlink" width="66266.8775533438px" height="53870.2021377087px" viewBox="0 0 66266.8775533438 53870.2021377087" xml:space="preserve"> 
<g>
<polygon id="214958" points="66166.8775533438, 53870.2021377087 66166.8775533438, 46504.4521377089 63526.8775533438, 46504.4521377089 63526.8775533438, 53870.2021377087 " style="fill: none; stroke-width: 1; stroke: #000000;"/>
<polygon id="214966" points="59582.5999977475, 53870.2021377087 63326.8775533438, 53870.2021377087 63326.8775533438, 46504.4521377088 63326.8775533438, 45658.7021377089 59582.5999977475, 45658.7021377088 " style="fill: none; stroke-width: 1; stroke: #000000;"/>
<polygon id="214968" points="55582.5999977475, 53870.2021377087 59444.0999977475, 53870.2021377087 59444.0999977475, 45658.7021377088 55582.5999977475, 45658.7021377088 55582.5999977475, 45801.0413972995 55582.5999977475, 46016.7628752088 55582.5999977475, 53116.241397299 55582.5999977475, 53331.9628752083 " style="fill: none; stroke-width: 1; stroke: #000000;"/>
<polygon id="214970" points="55106.0999977476, 45908.9021362541 55360.3403977475, 45801.0413972995 55444.0999977476, 45801.0413972995 55444.0999977475, 45658.7021377088 49582.5999977475, 45658.7021377088 49582.5999977475, 53870.2021377087 55444.0999977475, 53870.2021377087 55444.0999977475, 53331.9628752083 55360.3403977475, 53331.9628752083 55106.0999977476, 53224.1021362537 55360.3403977475, 53116.241397299 55444.0999977475, 53116.241397299 55444.0999977475, 46016.7628752088 55360.3403977475, 46016.7628752088 " style="fill: none; stroke-width: 1; stroke: #000000;"/>
<polygon id="214977" points="45582.5999977475, 53870.2021377087 49444.0999977475, 53870.2021377087 49444.0999977475, 45658.7021377088 45582.5999977475, 45658.7021377088 " style="fill: none; stroke-width: 1; stroke: #000000;"/>
<polygon id="214987" points="66166.8775533438, 46504.4521377089 66166.8775533438, 45520.2021377089 66266.8775533438, 45520.2021377089 66266.8775533438, 42924.4023254394 17041.8005117178, 42924.4023254394 17041.8005117178, 45589.4521377087 17111.0505117178, 45589.4521377087 17111.0505117178, 47835.2021377087 18672.5505117178, 47835.2021377087 18672.5505117178, 45520.2021377087 20813.3499977475, 45520.2021377087 20813.3499977475, 47835.2021377087 22374.8499977475, 47835.2021377087 22374.8499977475, 45938.7989974244 22374.8499977475, 45879.0052750837 22374.8499977475, 45520.2021377087 31513.3499977475, 45520.2021377088 37513.3499977475, 45520.2021377088 41513.3499977476, 45520.2021377088 45513.3499977476, 45520.2021377088 49513.3499977475, 45520.2021377088 55513.3499977475, 45520.2021377088 59513.3499977475, 45520.2021377088 63526.8775533438, 45520.2021377089 63526.8775533438, 46504.4521377089 " style="fill: none; stroke-width: 1; stroke: #000000;"/>
<polygon id="214989" points="20111.0505117178, 53770.2021377087 22374.8499977475, 53770.2021377087 22374.8499977475, 53253.9989974239 22374.8499977475, 53194.2052750832 22374.8499977475, 47973.7021377087 20744.0999977475, 47973.7021377087 20111.0505117178, 47973.7021377087 " style="fill: none; stroke-width: 1; stroke: #000000;"/>
<polygon id="215097" points="17111.0505117178, 53770.2021377087 19472.5505117178, 53770.2021377087 19472.5505117178, 47973.7021377087 18741.8005117178, 47973.7021377087 17111.0505117178, 47973.7021377087 " style="fill: none; stroke-width: 1; stroke: #000000;"/>
<polygon id="215099" points="11251.4999999999, 53770.2021377087 16972.5505117178, 53770.2021377087 16972.5505117178, 47973.7021377087 13582.2499999999, 47973.7021377087 13582.25, 45658.7021377087 11251.5, 45658.7021377087 11251.4999999999, 46504.4521377087 " style="fill: none; stroke-width: 1; stroke: #000000;"/>
<polygon id="215101" points="16972.5505117178, 45658.7021377087 13720.75, 45658.7021377087 13720.7499999999, 47835.2021377087 16972.5505117178, 47835.2021377087 " style="fill: none; stroke-width: 1; stroke: #000000;"/>
<polygon id="215103" points="17041.8005117178, 42924.4023254394 17041.8005117178, 37385.4019378662 16244.8999977476, 37385.4019378662 16244.8999977476, 37160.4019378662 17041.8005117178, 37160.4019378662 17041.8005117178, 31391.001550293 16244.8999977476, 31391.001550293 16244.8999977476, 31166.001550293 17041.8005117178, 31166.001550293 17041.8005117178, 20791.001550293 16244.8999977477, 20791.001550293 16244.8999977477, 20566.001550293 17041.8005117178, 20566.001550293 17041.8005117178, 13028.001550293 16244.8999977477, 13028.001550293 16244.8999977477, 12915.501550293 8350, 12915.5015502929 8350, 19959.3021362538 8349.99999999999, 25159.3021362538 8349.99999999998, 28259.3021362538 8349.99999999996, 42328.5521362538 8349.99999999995, 45520.2021377087 8411.49999999996, 45520.2021377087 8411.49999999995, 46504.4521377087 11051.4999999999, 46504.4521377087 11051.5, 45520.2021377087 13651.5, 45520.2021377087 17041.8005117178, 45520.2021377087 " style="fill: none; stroke-width: 1; stroke: #000000;"/>
<polygon id="215105" points="8411.49999999995, 46504.4521377087 8411.49999999994, 53770.2021377087 11051.4999999999, 53770.2021377087 11051.4999999999, 46504.4521377087 " style="fill: none; stroke-width: 1; stroke: #000000;"/>
<polygon id="215118" points="0, 53870.2021377087 8211.49999999994, 53870.2021377087 8211.49999999995, 46504.4521377087 8211.49999999995, 45520.2021377087 8211.49999999996, 42397.8021362538 0, 42397.8021362538 " style="fill: none; stroke-width: 1; stroke: #000000;"/>
<polygon id="215120" points="100, 25228.5521362538 100, 28259.3021362538 0, 28259.3021362538 0, 42259.3021362538 8211.49999999996, 42259.3021362538 8211.49999999998, 28328.5521362538 2711.49999999998, 28328.5521362538 2711.49999999999, 25228.5521362538 " style="fill: none; stroke-width: 1; stroke: #000000;"/>
<polygon id="215122" points="2849.99999999998, 28190.0521362538 8211.49999999998, 28190.0521362538 8211.49999999999, 25228.5521362538 2849.99999999999, 25228.5521362538 " style="fill: none; stroke-width: 1; stroke: #000000;"/>
<polygon id="215124" points="100, 20028.5521362538 100, 25090.0521362538 2780.74999999999, 25090.0521362538 8211.49999999999, 25090.0521362538 8211.49999999999, 20028.5521362538 " style="fill: none; stroke-width: 1; stroke: #000000;"/>
<polygon id="215138" points="100, 12984.7515502929 100, 16090.0521362538 5700, 16090.0521362538 5700, 16228.5521362538 100, 16228.5521362538 100, 19890.0521362538 8211.49999999999, 19890.0521362538 8211.50000000001, 12984.7515502929 " style="fill: none; stroke-width: 1; stroke: #000000;"/>
<polygon id="215140" points="0, 0 0, 8257.24999999988 100, 8257.24999999988 100, 12846.2515502929 8280.75000000001, 12846.2515502929 8280.75000000001, 8180.7499999999 10481.7472463102, 8180.74999999991 10481.7472463102, 8042.98039999991 10402.0999977477, 7910.50213625386 10552.0999977477, 7760.50213625387 10702.0999977477, 7910.50213625386 10622.4527491852, 8042.98039999991 10622.4527491852, 8180.74999999991 11672.5505117178, 8180.74999999992 11672.5505117178, 2280.74999999992 11741.8005117178, 2280.74999999992 11741.8005117178, 0 " style="fill: none; stroke-width: 1; stroke: #000000;"/>
<polygon id="215167" points="18140.6499977477, 100 16444.8999977477, 100 16444.8999977477, 0 11741.8005117178, 0 11741.8005117178, 2280.74999999992 11811.0505117178, 2280.74999999992 11811.0505117178, 8111.49999999992 14472.5505117178, 8111.49999999992 14472.5505117178, 5980.74999999993 14472.5505117178, 3661.49999999995 17909.8999977477, 3661.49999999996 18140.6499977477, 3661.49999999996 " style="fill: none; stroke-width: 1; stroke: #000000;"/>
<polygon id="215169" points="17840.6499977477, 3800 14611.0505117178, 3800 14611.0505117178, 5911.49999999993 16841.8005117178, 5911.49999999993 17840.6499977477, 5911.49999999994 " style="fill: none; stroke-width: 1; stroke: #000000;"/>
<polygon id="215171" points="21740.6499977477, 5911.49999999994 21740.6499977477, 3800 18379.1499977477, 3800 18379.1499977477, 5911.49999999994 19509.8999977477, 5911.49999999994 " style="fill: none; stroke-width: 1; stroke: #000000;"/>
<polygon id="215173" points="16911.0505117178, 6049.99999999994 16911.0505117178, 8111.49999999993 19440.6499977477, 8111.49999999994 19440.6499977477, 6049.99999999994 18309.8999977477, 6049.99999999995 17909.8999977477, 6049.99999999994 " style="fill: none; stroke-width: 1; stroke: #000000;"/>
<polygon id="215175" points="21740.6499977477, 100 18279.1499977477, 100 18279.1499977477, 3661.49999999997 18309.8999977477, 3661.49999999997 21740.6499977477, 3661.49999999998 " style="fill: none; stroke-width: 1; stroke: #000000;"/>
<polygon id="215177" points="26940.6499977477, 100 21879.1499977477, 100 21879.1499977477, 3730.74999999998 21879.1499977477, 5980.74999999995 21879.1499977477, 8111.49999999994 22650.5308280718, 8111.49999999994 22650.5308280718, 8027.74039999996 22594.0999977476, 7910.5021362539 22744.0999977476, 7760.5021362539 22894.0999977476, 7910.5021362539 22837.6691674234, 8027.74039999995 22837.6691674234, 8111.49999999994 26940.6499977477, 8111.49999999996 26940.6499977477, 5980.74999999997 " style="fill: none; stroke-width: 1; stroke: #000000;"/>
<polygon id="215179" points="29640.6499977477, 100 27079.1499977477, 100 27079.1499977477, 5911.49999999997 29640.6499977477, 5911.49999999998 " style="fill: none; stroke-width: 1; stroke: #000000;"/>
<polygon id="215192" points="34166.1993489981, 100 29779.1499977477, 100 29779.1499977477, 5911.49999999998 31009.8999977477, 5911.49999999998 33666.1993489981, 5911.49999999999 34166.1993489981, 5911.49999999999 " style="fill: none; stroke-width: 1; stroke: #000000;"/>
<polygon id="215194" points="31079.1499977477, 8264.49999999996 33596.9493489981, 8264.49999999996 33596.9493489981, 6049.99999999999 31079.1499977477, 6049.99999999998 " style="fill: none; stroke-width: 1; stroke: #000000;"/>
<polygon id="215196" points="34366.1993489981, 0 34366.1993489981, 5980.74999999999 34366.1993489981, 7265.74999999999 37006.1993489981, 7265.75 37006.1993489981, 0 " style="fill: none; stroke-width: 1; stroke: #000000;"/>
<polygon id="215198" points="37157.6993489981, 10971.201550293 37157.6993489981, 8249.99999999999 37006.1993489981, 8249.99999999999 37006.1993489981, 7265.75 34366.1993489981, 7265.74999999999 34366.1993489981, 8402.99999999997 33666.1993489981, 8402.99999999997 30940.6499977477, 8402.99999999996 30940.6499977477, 6049.99999999998 29709.8999977477, 6049.99999999998 27079.1499977477, 6049.99999999997 27079.1499977477, 8249.99999999996 22837.6691674234, 8249.99999999995 22650.5308280718, 8249.99999999995 21740.6499977477, 8249.99999999995 21740.6499977477, 6049.99999999995 19579.1499977477, 6049.99999999995 19579.1499977477, 8249.99999999994 16772.5505117178, 8249.99999999993 16772.5505117178, 6049.99999999994 14611.0505117178, 6049.99999999993 14611.0505117178, 8249.99999999993 11741.8005117178, 8249.99999999992 11741.8005117178, 8180.74999999992 10622.4527491852, 8180.74999999991 10481.7472463102, 8180.74999999991 8280.75000000001, 8180.74999999991 8280.75000000001, 12915.5015502929 16244.8999977477, 12915.501550293 16244.8999977477, 12803.001550293 17041.8005117178, 12803.001550293 17041.8005117178, 10971.201550293 " style="fill: none; stroke-width: 1; stroke: #000000;"/>
<polygon id="217810" points="41582.5999977475, 53870.2021377087 45444.0999977475, 53870.2021377087 45444.0999977475, 45658.7021377088 41582.5999977475, 45658.7021377088 " style="fill: none; stroke-width: 1; stroke: #000000;"/>
<polygon id="217811" points="37582.5999977475, 53870.2021377087 41444.0999977475, 53870.2021377087 41444.0999977475, 45658.7021377088 37582.5999977475, 45658.7021377088 " style="fill: none; stroke-width: 1; stroke: #000000;"/>
<polygon id="217812" points="31582.5999977475, 53870.2021377087 37444.0999977475, 53870.2021377087 37444.0999977475, 45658.7021377088 31582.5999977475, 45658.7021377088 " style="fill: none; stroke-width: 1; stroke: #000000;"/>
<polygon id="217813" points="22513.3499977475, 45879.0052750837 22597.1095977475, 45879.0052750837 22759.1239785782, 45759.6564327983 22894.0999977475, 45908.902136254 22759.1239785782, 46058.1478397098 22597.1095977475, 45938.7989974244 22513.3499977475, 45938.7989974244 22513.3499977475, 47904.4521377087 22513.3499977475, 53194.2052750832 22597.1095977475, 53194.2052750832 22759.1239785782, 53074.8564327978 22894.0999977475, 53224.1021362536 22759.1239785782, 53373.3478397093 22597.1095977475, 53253.9989974239 22513.3499977475, 53253.9989974239 22513.3499977475, 53870.2021377087 31444.0999977475, 53870.2021377087 31444.0999977475, 45658.7021377087 22513.3499977475, 45658.7021377087 " style="fill: none; stroke-width: 1; stroke: #000000;"/>
</g>
</svg>
